<mxfile host="app.diagrams.net" modified="2022-09-01T21:29:28.918Z" agent="5.0 (Windows NT 10.0; Win64; x64) AppleWebKit/537.36 (KHTML, like Gecko) Chrome/104.0.0.0 Safari/537.36" etag="gAZi7KzqaPOaO_48eLHR" version="20.2.8" type="github">
  <diagram id="7bg_fqsdCto8fnfPeHFM" name="Página-1">
    <mxGraphModel dx="2426" dy="2103" grid="1" gridSize="10" guides="1" tooltips="1" connect="1" arrows="1" fold="1" page="1" pageScale="1" pageWidth="827" pageHeight="1169" math="0" shadow="0">
      <root>
        <mxCell id="0" />
        <mxCell id="1" parent="0" />
        <mxCell id="B7mHFLHpOVbxDEZ-R4eu-22" value="" style="rounded=0;whiteSpace=wrap;html=1;fontSize=21;fillColor=#dae8fc;strokeColor=#6c8ebf;" vertex="1" parent="1">
          <mxGeometry x="160" y="-70" width="560" height="410" as="geometry" />
        </mxCell>
        <mxCell id="B7mHFLHpOVbxDEZ-R4eu-21" value="" style="rounded=0;whiteSpace=wrap;html=1;fontSize=21;fillColor=#008a00;strokeColor=#005700;fontColor=#ffffff;" vertex="1" parent="1">
          <mxGeometry x="752.5" y="-70" width="405" height="280" as="geometry" />
        </mxCell>
        <mxCell id="B7mHFLHpOVbxDEZ-R4eu-12" style="edgeStyle=orthogonalEdgeStyle;rounded=0;orthogonalLoop=1;jettySize=auto;html=1;exitX=1;exitY=0.25;exitDx=0;exitDy=0;entryX=0;entryY=0.25;entryDx=0;entryDy=0;" edge="1" parent="1" source="B7mHFLHpOVbxDEZ-R4eu-2" target="B7mHFLHpOVbxDEZ-R4eu-3">
          <mxGeometry relative="1" as="geometry">
            <Array as="points">
              <mxPoint x="470" y="15" />
              <mxPoint x="470" y="15" />
            </Array>
          </mxGeometry>
        </mxCell>
        <mxCell id="B7mHFLHpOVbxDEZ-R4eu-17" style="edgeStyle=orthogonalEdgeStyle;rounded=0;orthogonalLoop=1;jettySize=auto;html=1;exitX=0.5;exitY=1;exitDx=0;exitDy=0;entryX=0.5;entryY=0;entryDx=0;entryDy=0;entryPerimeter=0;" edge="1" parent="1" source="B7mHFLHpOVbxDEZ-R4eu-2" target="B7mHFLHpOVbxDEZ-R4eu-15">
          <mxGeometry relative="1" as="geometry" />
        </mxCell>
        <mxCell id="B7mHFLHpOVbxDEZ-R4eu-2" value="&lt;font style=&quot;font-size: 15px;&quot;&gt;&amp;nbsp;No banco e chamar serviço de geração de Boleto, tendo os dados devolvidos gerar BoletoRegistro e BoletoRegistroRetorno.&lt;/font&gt;" style="rounded=1;whiteSpace=wrap;html=1;" vertex="1" parent="1">
          <mxGeometry x="179" y="-20" width="210" height="140" as="geometry" />
        </mxCell>
        <mxCell id="B7mHFLHpOVbxDEZ-R4eu-13" style="edgeStyle=orthogonalEdgeStyle;rounded=0;orthogonalLoop=1;jettySize=auto;html=1;exitX=0;exitY=0.75;exitDx=0;exitDy=0;entryX=1;entryY=0.75;entryDx=0;entryDy=0;" edge="1" parent="1" source="B7mHFLHpOVbxDEZ-R4eu-3" target="B7mHFLHpOVbxDEZ-R4eu-2">
          <mxGeometry relative="1" as="geometry" />
        </mxCell>
        <mxCell id="B7mHFLHpOVbxDEZ-R4eu-3" value="&lt;font style=&quot;font-size: 15px;&quot;&gt;Chamar Serviço Itau.&lt;br&gt;&lt;br&gt;Gerar NossoNumero.&lt;br&gt;&lt;br&gt;Devolver Informações&amp;nbsp;&lt;/font&gt;" style="rounded=1;whiteSpace=wrap;html=1;" vertex="1" parent="1">
          <mxGeometry x="960" y="-20" width="190" height="140" as="geometry" />
        </mxCell>
        <mxCell id="B7mHFLHpOVbxDEZ-R4eu-15" value="Banco" style="shape=cylinder3;whiteSpace=wrap;html=1;boundedLbl=1;backgroundOutline=1;size=15;" vertex="1" parent="1">
          <mxGeometry x="254" y="360" width="60" height="80" as="geometry" />
        </mxCell>
        <mxCell id="B7mHFLHpOVbxDEZ-R4eu-19" style="edgeStyle=orthogonalEdgeStyle;rounded=0;orthogonalLoop=1;jettySize=auto;html=1;exitX=0;exitY=0.25;exitDx=0;exitDy=0;entryX=0.75;entryY=1;entryDx=0;entryDy=0;fontSize=21;" edge="1" parent="1" source="B7mHFLHpOVbxDEZ-R4eu-18" target="B7mHFLHpOVbxDEZ-R4eu-2">
          <mxGeometry relative="1" as="geometry" />
        </mxCell>
        <mxCell id="B7mHFLHpOVbxDEZ-R4eu-18" value="&lt;font style=&quot;font-size: 13px;&quot;&gt;Processar RPS passando para Nota Fiscal gerando Remessa.&lt;br style=&quot;&quot;&gt;&lt;br style=&quot;&quot;&gt;Em cada RPS Gerar registro BoletoCliente.&lt;/font&gt;" style="rounded=1;whiteSpace=wrap;html=1;fontSize=21;" vertex="1" parent="1">
          <mxGeometry x="459" y="165" width="190" height="130" as="geometry" />
        </mxCell>
      </root>
    </mxGraphModel>
  </diagram>
</mxfile>
